<svg width="132" height="140" viewBox="0 0 132 140" fill="none" xmlns="http://www.w3.org/2000/svg">
<path d="M0.166664 118.417C0.166664 130.175 8.725 139.167 19.9167 139.167H112.083C123.275 139.167 131.833 130.175 131.833 118.417V63.0834H0.166664V118.417ZM112.083 14.6667H98.9167V7.75004C98.9167 3.60004 96.2833 0.833374 92.3333 0.833374C88.3833 0.833374 85.75 3.60004 85.75 7.75004V14.6667H46.25V7.75004C46.25 3.60004 43.6167 0.833374 39.6667 0.833374C35.7167 0.833374 33.0833 3.60004 33.0833 7.75004V14.6667H19.9167C8.725 14.6667 0.166664 23.6584 0.166664 35.4167V49.25H131.833V35.4167C131.833 23.6584 123.275 14.6667 112.083 14.6667Z" fill="white"/>
</svg>
