<svg width="139" height="130" viewBox="0 0 139 130" fill="none" xmlns="http://www.w3.org/2000/svg">
<path d="M133.109 0.15625H5.89062C2.83115 0.15625 0.359375 2.47441 0.359375 5.34375V124.656C0.359375 127.526 2.83115 129.844 5.89062 129.844H133.109C136.169 129.844 138.641 127.526 138.641 124.656V5.34375C138.641 2.47441 136.169 0.15625 133.109 0.15625ZM44.6094 102.609C44.6094 103.323 43.9871 103.906 43.2266 103.906H29.3984C28.6379 103.906 28.0156 103.323 28.0156 102.609V27.3906C28.0156 26.6773 28.6379 26.0938 29.3984 26.0938H43.2266C43.9871 26.0938 44.6094 26.6773 44.6094 27.3906V102.609ZM77.7969 57.2188C77.7969 57.932 77.1746 58.5156 76.4141 58.5156H62.5859C61.8254 58.5156 61.2031 57.932 61.2031 57.2188V27.3906C61.2031 26.6773 61.8254 26.0938 62.5859 26.0938H76.4141C77.1746 26.0938 77.7969 26.6773 77.7969 27.3906V57.2188ZM110.984 68.8906C110.984 69.6039 110.362 70.1875 109.602 70.1875H95.7734C95.0129 70.1875 94.3906 69.6039 94.3906 68.8906V27.3906C94.3906 26.6773 95.0129 26.0938 95.7734 26.0938H109.602C110.362 26.0938 110.984 26.6773 110.984 27.3906V68.8906Z" fill="white"/>
</svg>
